# xmcd CD database file
#
# Track frame offsets:
#	150
#	6544
#	17767
#	31729
#	43476
#	55732
#	69501
#	80851
#	93792
#	105701
#	118900
#	130117
#	138574
#
# Disc length: 2047 seconds
#
# Revision: 5
# Processed by: cddbd v1.5.2PL0 Copyright (c) Steve Scherf et al.
# Submitted via: CDex 1.82
#
DISCID=b507fd0d
DTITLE=Kasey Chambers And Shane Nicholson - Wreck and Ruin
DYEAR=2012
DGENRE=Country
TTITLE0='Til Death Do Us Part
TTITLE1=Wreck And Ruin
TTITLE2=Adam And Eve
TTITLE3=The Quiet Life
TTITLE4=Dustbowl
TTITLE5=Familiar Strangers
TTITLE6=Your Sweet Love
TTITLE7=Rusted Shoes
TTITLE8=Flat Nail Joe
TTITLE9=Have Mercy On Me
TTITLE10=Up Or Down
TTITLE11=Sick As A Dog
TTITLE12=Troubled Mind
EXTD=YEAR: 2012
EXTT0=
EXTT1=
EXTT2=
EXTT3=
EXTT4=
EXTT5=
EXTT6=
EXTT7=
EXTT8=
EXTT9=
EXTT10=
EXTT11=
EXTT12=
PLAYORDER=
